<?xml version="1.0" encoding="UTF-8"?>
<svg id="_레이어_2" data-name="레이어 2" xmlns="http://www.w3.org/2000/svg" xmlns:xlink="http://www.w3.org/1999/xlink" viewBox="0 0 282.04 309.74">
  <defs>
    <style>
      .cls-1 {
        fill: #fff;
      }

      .cls-2 {
        fill: url(#_무제_그라디언트_113);
      }

      .cls-3 {
        stroke: #fff;
      }

      .cls-3, .cls-4, .cls-5 {
        fill: none;
        stroke-miterlimit: 10;
      }

      .cls-6 {
        fill: #f0b3d0;
      }

      .cls-4 {
        stroke: #e60012;
      }

      .cls-4, .cls-5 {
        stroke-width: 3px;
      }

      .cls-7 {
        fill: #df79ad;
      }

      .cls-8 {
        fill: #e0e0e0;
      }

      .cls-5 {
        stroke: #231815;
      }

      .cls-9 {
        fill: #e60012;
      }

      .cls-10 {
        fill: #00913a;
      }

      .cls-11 {
        fill: #68ba60;
      }

      .cls-12 {
        fill: #fdf7dd;
      }

      .cls-13 {
        fill: #231815;
      }

      .cls-14 {
        fill: #addef4;
      }

      .cls-15 {
        fill: #9fa0a0;
      }

      .cls-16 {
        fill: #2f9557;
      }

      .cls-17 {
        fill: #e297bf;
      }

      .cls-18 {
        fill: #98d6f1;
      }

      .cls-19 {
        fill: #c3669b;
      }
    </style>
    <linearGradient id="_무제_그라디언트_113" data-name="무제 그라디언트 113" x1="0" y1="177.71" x2="282.04" y2="177.71" gradientUnits="userSpaceOnUse">
      <stop offset="0" stop-color="#fff"/>
      <stop offset="1" stop-color="#dcdddd" stop-opacity="0"/>
    </linearGradient>
  </defs>
  <g id="_레이어_1-2" data-name="레이어 1">
    <path class="cls-2" d="m282.01,178.46c1.44,71.5-57.77,126.08-94.03,129.67-7.95.79-29.31,1.5-43.59,1.6-17.61.12-38.25-.36-45.46-1.1C59.84,304.64-1.08,250.79.01,178.46.99,114.07,50.59,68.23,97.61,52.53c40.67-13.58,75.69-3.35,85.34-.2,47.6,15.55,97.76,61.52,99.06,126.13Z"/>
  </g>
  <g id="_레이어_2-2" data-name="레이어 2">
    <path class="cls-1" d="m140.65,52c74.55,0,129.17,65.63,129.36,129.36.17,54.51-39.48,106.92-77.58,115.83-11.06,2.59-32.21,3.89-46.34,4.17-17.24.34-35.42-.64-43.91-2.04-38.74-6.37-89.91-56.52-90.89-117.96-.49-30.65,13.47-56.75,13.48-56.75s.16-.31.31-.6c8.36-16.09,51.56-72.01,115.58-72.01Z"/>
    <path class="cls-18" d="m52.68,89.89c-.12,4.15,46.62,11.11,87.13,10.69,41.59-.44,88.75-8.79,88.57-12.98-.35-8.03-175.48-5.73-175.71,2.29Z"/>
    <path class="cls-14" d="m176.5,97.98c11-1.05,20.6-1.81,28.85-3.32,1.65-.3,4.22-.84,9.37-1.93,5.3-1.12,5.74-1.26,6.48-1.6,3.68-1.71,5.03-4.04,7.19-3.53.78.19,1.16.62,2.41,1.93,4.3,4.48,2.02,1.55,5.58,5.52,3.83,4.27,7.29,8.57,8.04,9.57,25.6,34.11,25.17,77.67,25.17,77.67-.51,51.91-36.01,106.11-77.58,115.83-11.06,2.59-32.21,3.89-46.34,4.17-17.24.34-35.42-.64-43.91-2.04-38.74-6.37-89.91-56.52-90.89-117.96-.49-30.65,13.47-56.75,13.48-56.75.05-.1.29-.56.31-.6,3-5.64,6.45-10.55,6.45-10.55,1.03-1.46,1.02-1.37,6.17-7.94,0,0,5.4-6.89,14.13-15.61,0,0,1.11-1.11,1.28-.94.01.01,0,.04.04.17.01.04.03.12.06.18.01.03.05.1.18.24.12.13.22.21.24.22.3.23.63.41.74.47.24.13.46.25.68.33.04.02.17.06.35.14.08.04.1.05.17.08.14.06.23.1.39.15.28.1.2.08.46.17.09.03.3.11.6.21.23.08.5.17.81.26.44.13.44.11.96.26.49.14.5.16,1.01.3.28.08.48.13.84.22.4.1.71.17.96.23.08.02.43.1.88.2.16.04.29.07.38.09.08.02.26.06.49.11.05.01.36.08.72.16.67.14,1.29.27,1.43.3,1.23.25,2.7.52,2.92.56,14.19,2.59,33.99,4.21,33.99,4.21,6.28.51,10.95.78,12.73.87,3.56.19,9.76.52,17.62.6,4.7.05,13.39.11,24.33-.62,6.76-.45,4.41-.54,19.85-2.02Z"/>
  </g>
  <g id="_레이어_3" data-name="레이어 3">
    <g>
      <path class="cls-15" d="m186.21,54.04c-12.06,2.56-27.39,4.74-45.19,4.74-17.8,0-33.14-2.18-45.19-4.74V6.93c0-1.7,1.38-3.07,3.07-3.07h84.23c1.7,0,3.07,1.38,3.07,3.07v47.12Z"/>
      <ellipse class="cls-8" cx="141.06" cy="5.02" rx="44.47" ry="5.02"/>
    </g>
  </g>
  <g id="_레이어_5" data-name="레이어 5">
    <path class="cls-1" d="m160.69,288.21c-1.41,1.4-4.92,4.51-10.46,5.81-6.07,1.42-10.98-.17-12.82-.87-.13.03-.83.16-1.51-.28-.43-.28-.76-.73-.87-1.27l-32.72-154.16c-.12-.54,0-1.08.28-1.51.39-.6,1.06-.8,1.27-.87,2.53-.8,4.13-2.78,9.91-4.23,6.95-1.75,10.66-.42,13.37-.71.2-.02.92-.11,1.51.28.43.28.76.73.87,1.27l32.72,154.16c-.52.8-1.03,1.59-1.55,2.39Z"/>
    <path class="cls-9" d="m144.74,202.71c-3.93.57-8.51,1.33-13.6,2.38-5.28,1.08-9.95,2.23-13.88,3.29-.02,0-.12.02-.21,0-.06,0-.09-.03-.1-.06l-.64-3.11c-.01-.06.1-.14.26-.17,3.59-1.06,8.22-2.29,13.66-3.41,5.41-1.12,10.12-1.81,13.83-2.26.02,0,.12-.02.21,0,.06,0,.09.03.1.06l.64,3.11c.01.06-.1.14-.26.17Z"/>
    <ellipse class="cls-4" cx="138" cy="196.29" rx="4.15" ry="7.17" transform="translate(-85.52 109.04) rotate(-33.57)"/>
    <path class="cls-9" d="m145.01,203.62c-3.8,1.47-8.21,3.29-13.07,5.5-5.04,2.29-9.45,4.5-13.15,6.46-.02,0-.11.05-.2.06-.06,0-.1,0-.11-.04l-1.32-2.89c-.03-.06.07-.16.22-.22,3.36-1.88,7.71-4.16,12.9-6.53,5.16-2.35,9.71-4.13,13.32-5.43.02,0,.11-.05.2-.06.06,0,.1,0,.11.04l1.32,2.89c.03.06-.07.16-.22.22Z"/>
    <path class="cls-9" d="m146.87,213.85c-3.97.02-8.63.14-13.82.46-5.39.34-10.18.82-14.23,1.33-.02,0-.12,0-.21-.02-.05-.02-.09-.04-.09-.07l-.2-3.17c0-.06.12-.12.28-.13,3.71-.55,8.47-1.13,14.02-1.48,5.52-.35,10.29-.39,14.03-.31.02,0,.12,0,.21.02.05.02.09.04.09.07l.2,3.17c0,.06-.12.12-.28.13Z"/>
    <ellipse class="cls-4" cx="150.26" cy="196.29" rx="7.17" ry="4.15" transform="translate(-96.37 212.96) rotate(-56.43)"/>
    <circle class="cls-4" cx="144.29" cy="201.62" r="2.26"/>
    <path class="cls-9" d="m142.85,201.6c-2.05,2.87-3.97,5.88-5.52,9.05-1.44,2.94-2.48,6.2-1.85,9.5.1.55,3.02-.11,2.9-.78-.64-3.34.47-6.58,1.95-9.54s3.39-5.97,5.38-8.76c.29-.41-1.06-.25-1.15-.24-.54.1-1.36.28-1.7.77h0Z"/>
    <path class="cls-9" d="m145.28,202.79c-.81,5.95-.05,12.06,2.25,17.6.53,1.29,3.41.46,2.9-.78-2.23-5.4-3-11.26-2.21-17.05.2-1.46-2.76-1.08-2.94.22h0Z"/>
  </g>
  <g id="_레이어_8" data-name="레이어 8">
    <g>
      <line class="cls-3" x1="225.99" y1="172.58" x2="230.79" y2="210.14"/>
      <line class="cls-3" x1="239.96" y1="240.4" x2="248.66" y2="205.93"/>
      <line class="cls-3" x1="226.46" y1="226.45" x2="246.12" y2="196.82"/>
      <line class="cls-3" x1="212.94" y1="263.47" x2="239.96" y2="240.37"/>
      <line class="cls-3" x1="222.11" y1="244.32" x2="230.81" y2="209.85"/>
      <line class="cls-3" x1="206.52" y1="276.13" x2="222.16" y2="244.2"/>
      <line class="cls-3" x1="228.39" y1="192.34" x2="236.83" y2="175.11"/>
      <line class="cls-3" x1="221.71" y1="244.55" x2="209.6" y2="229.68"/>
      <line class="cls-3" x1="208.83" y1="271.18" x2="196.71" y2="256.3"/>
      <line class="cls-3" x1="239.84" y1="240.48" x2="254.43" y2="228.01"/>
      <line class="cls-3" x1="229.77" y1="201.33" x2="214.84" y2="192.71"/>
      <ellipse class="cls-1" cx="226.46" cy="171.72" rx="2.61" ry="1.31" transform="translate(-55.52 136.24) rotate(-30)"/>
      <ellipse class="cls-1" cx="214.12" cy="192.3" rx="2.61" ry="1.31" transform="translate(-42.81 62.62) rotate(-15.15)"/>
      <ellipse class="cls-1" cx="236.94" cy="175.28" rx="2.61" ry="1.31" transform="translate(-37.57 68) rotate(-15.15)"/>
      <ellipse class="cls-1" cx="245.36" cy="196.32" rx="1.31" ry="2.61" transform="translate(-16.22 370.44) rotate(-72.32)"/>
      <ellipse class="cls-1" cx="210.8" cy="229.2" rx="2.61" ry="1.31" transform="translate(-52.56 63.04) rotate(-15.15)"/>
      <ellipse class="cls-1" cx="248.63" cy="206.07" rx="2.61" ry="1.31" transform="translate(-45.21 72.12) rotate(-15.15)"/>
      <ellipse class="cls-1" cx="254.1" cy="228.29" rx="2.61" ry="1.31" transform="translate(-50.82 74.32) rotate(-15.15)"/>
      <ellipse class="cls-1" cx="200.01" cy="259.3" rx="2.61" ry="1.31" transform="translate(-60.8 61.26) rotate(-15.15)"/>
    </g>
  </g>
  <g id="_레이어_4" data-name="레이어 4">
    <path class="cls-11" d="m74.66,220.41c3.85,9.28,7.7,18.55,11.55,27.83,1.77,4.26,3.25,8.87,5.67,12.81s6.13,6.27,10.18,8.3c15.55,7.81,32.86,11.96,50.25,12.23,8.72.14,17.48-.73,26.01-2.55,2.1-.45,4.18-.96,6.25-1.53s4.55-1.04,6.33-2.33,2.48-3.43,3.41-5.35,1.92-3.74,2.97-5.56c8.56-14.72,20.78-26.99,28.66-42.15,8.33-16.02,11.94-33.88,14.87-51.55.37-2.2.72-4.41,1.08-6.61.21-1.33-.34-2.69-1.75-3.08-1.19-.33-2.86.41-3.08,1.75-2.74,17.01-5.48,34.4-12.32,50.35-3.29,7.69-7.65,14.76-12.52,21.54s-9.99,13.13-14.64,19.95c-2.29,3.36-4.45,6.81-6.36,10.4-.94,1.77-1.69,3.62-2.63,5.38-.85,1.61-3.13,1.8-4.75,2.26-7.91,2.23-16.05,3.56-24.26,3.95-16.63.8-33.45-2.06-48.8-8.54-3.72-1.57-7.6-3.26-10.95-5.55s-4.92-6.05-6.44-9.71l-11.16-26.91-2.77-6.67c-.52-1.25-1.66-2.14-3.08-1.75-1.18.32-2.27,1.82-1.75,3.08h0Z"/>
    <g>
      <path class="cls-7" d="m47.76,178.77c2.47,11.08-1.61,14.31,2.24,18.57,2.89,3.21,5.59,1.81,12.6,6.93,4.17,3.05,4.51,4.48,6.69,4.69,4.81.46,10.04-5.85,12.16-11.69,1.94-5.34.77-10.56-1.64-20.77-3.04-12.88-4.67-19.42-10.1-24.32-1.55-1.4-7.03-6.34-14.49-5.87-1.85.12-8.09.83-11.08,5.6-1.13,1.8-1.54,3.78-1.57,6.71-.09,8.72,3.32,11.78,5.18,20.14Z"/>
      <path class="cls-17" d="m55.97,186.05c2.18,5.08,3.31,7.68,5.55,10.71,4.67,6.32,8.76,7.78,9.82,8.13,1.61.53,4.38,1.43,7.6.53,4.19-1.18,6.4-4.65,7.28-6.02,1-1.56,3.33-5.8,1.53-16.51-1.55-9.24-2.72-15.85-9.09-20.84-1.49-1.17-6.71-5.27-14.11-4.58-1.83.17-8.03,1.03-11.16,5.3-1.18,1.61-1.66,3.35-1.8,5.92-.17,3-.02,7.14,4.37,17.38Z"/>
      <path class="cls-6" d="m52.24,194.58c2.28,5.97,3.47,9.03,5.58,12.69,4.42,7.63,7.85,9.7,8.75,10.21,1.35.76,3.67,2.08,6.17,1.39,3.25-.9,4.67-4.59,5.23-6.05.64-1.66,2.07-6.2-.49-18.5-2.21-10.61-3.84-18.2-9.48-24.51-1.32-1.47-5.95-6.66-11.82-6.65-1.45,0-6.35.32-8.42,4.83-.78,1.7-.99,3.62-.83,6.5.18,3.37.73,8.06,5.33,20.1Z"/>
      <path class="cls-17" d="m75.55,186.91c.9,5.45,1.35,8.26,1.09,12.01-.53,7.84-3.19,11.27-3.9,12.14-1.07,1.31-2.92,3.57-6.12,4.54-4.17,1.26-7.9-.47-9.38-1.15-1.68-.78-5.93-3.09-10.18-13.08-3.67-8.62-6.24-14.82-3.57-22.45.62-1.78,2.82-8.05,9.42-11.46,3.45-1.78,4.69-2.18,5.5-1.94,1.46.44,1.88,1.71,3.38,1.76,1.62.05,1.87-1.39,3.38-1.37,1.76.03,3.25,1.99,4.71,4.01,1.75,2.44,3.86,6,5.68,16.99Z"/>
      <path class="cls-7" d="m68.94,181.95c.85,7.93-.78,8.94.51,18.7.63,4.8,2.8,8.7,4.47,12.51,1.72,3.94,2.23,4.37,2.57,4.61,4.98,3.46,19.41-3.17,24.29-14.27,2.18-4.96,1.67-10.26.29-20.83-1.16-8.92-1.93-14.3-5.88-20.09-1.62-2.38-4.84-6.38-10.16-9.27-3.58-1.94-8.45-4.58-12.81-2.69-4.88,2.12-6.15,8.6-6.58,10.8-1.47,7.52,2.11,9.49,3.29,20.54Z"/>
      <path class="cls-7" d="m61.46,179.32c.44.38.82.73,1.18,1.16,5.38,6.41,4.13,12.74,9.05,22.9.18.37,1.97,4.05,3.78,9.1,1.2,3.36,1.35,4.34,1.01,5.29-1.4,3.94-10.08,4.13-10.79,4.13-11.56.14-24.54-10.81-29.65-24.23-6.84-17.98,1.06-37.9,5.01-37.96,2.38-.04,2.26,7.19,9.84,13.6,4.83,4.09,6.36,2.41,10.57,6Z"/>
      <path class="cls-19" d="m61.84,164.66c.16.09.41.24.89.55.86.55.63.43.78.51.4.24.62.32.61.44,0,.09-.13.11-.41.29-.28.17-.25.21-.5.38-.15.1-.41.27-.79.36-.11.03-.34.08-.63.07-.12,0-.4-.02-.74-.14-.27-.1-.45-.21-.66-.36-.45-.3-.46-.42-.92-.72-.02-.02-.17-.1-.45-.27-.21-.12-.28-.16-.39-.2-.16-.06-.19-.04-.21-.07-.09-.15.49-.46.74-1.06.04-.09.09-.23.2-.41.09-.14.24-.33.24-.33h0s.37.1.54.16c.28.09.36.15.94.42.6.28.53.23.77.36Z"/>
    </g>
    <path class="cls-16" d="m208.08,220.94c-1.85,24.26-6.98,33.79-8.49,36.48-2.82,5.03-9.48,14.68-13.59,14.03-3.44-.54-3.46-8-7.2-23.86-3.82-16.23-5.58-23.13-7.15-36.77-.61-5.33-.78-8.48-.68-11.91.22-7.83,1.71-13.79,3.31-20.02,1.3-5.06,2.35-9.78,5.03-15.55,5.01-10.79,7.51-16.18,10.72-16.34,7.16-.36,14.9,23.24,17.58,40.83,1.5,9.84,1.64,17.63.46,33.12Z"/>
    <path class="cls-10" d="m137.19,247.82c16.93,17.48,26.97,21.52,29.85,22.62,7,2.67,14.37,5.49,19.42,2.1,7.92-5.32,8.3-24.65-.51-35.74-10.74-13.51-27.69-5.46-38.81-19.91-7.08-9.21-2.89-15.98-10.85-23.01-9.11-8.04-25.41-8.78-30.31-2.56-4.64,5.88,3.67,19.63,10.39,30.75,6.71,11.11,13.45,18.15,20.82,25.76Z"/>
  </g>
  <g id="_레이어_6" data-name="레이어 6">
    <path class="cls-1" d="m168.76,281.76c1.41,1.4,4.92,4.51,10.46,5.81,6.07,1.42,10.98-.17,12.82-.87.13.03.83.16,1.51-.28.43-.28.76-.73.87-1.27l32.72-154.16c.12-.54,0-1.08-.28-1.51-.39-.6-1.06-.8-1.27-.87-2.53-.8-4.13-2.78-9.91-4.23-6.95-1.75-10.66-.42-13.37-.71-.2-.02-.92-.11-1.51.28-.43.28-.76.73-.87,1.27l-32.72,154.16c.52.8,1.03,1.59,1.55,2.39Z"/>
    <path class="cls-13" d="m183.92,199.11c3.93.57,8.51,1.33,13.6,2.38,5.28,1.08,9.95,2.23,13.88,3.29.02,0,.12.02.21,0,.06,0,.09-.03.1-.06l.64-3.11c.01-.06-.1-.14-.26-.17-3.59-1.06-8.22-2.29-13.66-3.41-5.41-1.12-10.12-1.81-13.83-2.26-.02,0-.12-.02-.21,0-.06,0-.09.03-.1.06l-.64,3.11c-.01.06.1.14.26.17Z"/>
    <ellipse class="cls-5" cx="187.64" cy="203.78" rx="7.17" ry="4.15" transform="translate(-85.91 247.45) rotate(-56.43)"/>
    <path class="cls-13" d="m183.65,200.02c3.8,1.47,8.21,3.29,13.07,5.5,5.04,2.29,9.45,4.5,13.15,6.46.02,0,.11.05.2.06.06,0,.1,0,.11-.04l1.32-2.89c.03-.06-.07-.16-.22-.22-3.36-1.88-7.71-4.16-12.9-6.53-5.16-2.35-9.71-4.13-13.32-5.43-.02,0-.11-.05-.2-.06-.06,0-.1,0-.11.04l-1.32,2.89c-.03.06.07.16.22.22Z"/>
    <path class="cls-13" d="m181.79,210.25c3.97.02,8.63.14,13.82.46,5.39.34,10.18.82,14.23,1.33.02,0,.12,0,.21-.02.05-.02.09-.04.09-.07l.2-3.17c0-.06-.12-.12-.28-.13-3.71-.55-8.47-1.13-14.02-1.48-5.52-.35-10.29-.39-14.03-.31-.02,0-.12,0-.21.02-.05.02-.09.04-.09.07l-.2,3.17c0,.06.12.12.28.13Z"/>
    <ellipse class="cls-5" cx="175.38" cy="203.78" rx="4.15" ry="7.17" transform="translate(-83.43 130.95) rotate(-33.57)"/>
    <circle class="cls-5" cx="181.34" cy="209.11" r="2.26"/>
    <path class="cls-13" d="m179.91,209.22c1.99,2.78,3.84,5.7,5.38,8.76s2.63,6.23,2,9.54c-.11.59,2.72.15,2.85-.53.63-3.32-.35-6.52-1.81-9.5-1.55-3.17-3.48-6.18-5.52-9.05-.48-.68-3.09.51-2.9.78h0Z"/>
    <path class="cls-13" d="m177.44,210.55c.78,5.67.02,11.49-2.16,16.78-.63,1.53,2.28,1.52,2.77.33,2.34-5.66,3.12-11.81,2.29-17.88-.18-1.33-3.09-.61-2.9.78h0Z"/>
  </g>
  <g id="_레이어_7" data-name="레이어 7">
    <g>
      <line class="cls-3" x1="42.38" y1="142.91" x2="19.99" y2="173.44"/>
      <line class="cls-3" x1="28.8" y1="207.51" x2="20.1" y2="173.04"/>
      <line class="cls-3" x1="44.39" y1="239.32" x2="28.76" y2="207.4"/>
      <line class="cls-3" x1="71.28" y1="262.21" x2="44.26" y2="239.11"/>
      <line class="cls-3" x1="168.76" y1="292.19" x2="111.69" y2="291.91"/>
      <line class="cls-3" x1="62.11" y1="243.05" x2="53.4" y2="208.58"/>
      <line class="cls-3" x1="77.7" y1="274.86" x2="62.06" y2="242.94"/>
      <line class="cls-3" x1="112.25" y1="291.68" x2="77.56" y2="274.65"/>
      <line class="cls-3" x1="32.89" y1="155.61" x2="24.45" y2="138.38"/>
      <line class="cls-3" x1="62.51" y1="243.29" x2="74.62" y2="228.41"/>
      <line class="cls-3" x1="96.2" y1="284.15" x2="108.31" y2="269.27"/>
      <line class="cls-3" x1="43.87" y1="238.77" x2="29.28" y2="226.31"/>
      <line class="cls-3" x1="20.33" y1="174.12" x2="20.83" y2="156.88"/>
      <ellipse class="cls-1" cx="75.65" cy="228.8" rx="2.61" ry="1.31"/>
      <ellipse class="cls-1" cx="66.67" cy="240.24" rx="2.61" ry="1.31"/>
      <ellipse class="cls-1" cx="54.18" cy="218.46" rx="2.61" ry="1.31"/>
      <ellipse class="cls-1" cx="55" cy="209.24" rx="2.61" ry="1.31"/>
      <ellipse class="cls-1" cx="20.82" cy="157" rx="2.61" ry="1.31" transform="translate(-75.71 31.45) rotate(-30)"/>
      <ellipse class="cls-1" cx="43.17" cy="142.59" rx="2.61" ry="1.31" transform="translate(-65.51 40.69) rotate(-30)"/>
      <ellipse class="cls-1" cx="29.29" cy="226.31" rx="1.31" ry="2.61" transform="translate(-198.73 235.45) rotate(-84.92)"/>
      <ellipse class="cls-1" cx="107.57" cy="269.51" rx="2.61" ry="1.31" transform="translate(-120.34 89.89) rotate(-30)"/>
    </g>
    <ellipse class="cls-1" cx="25.21" cy="139.47" rx="2.61" ry="1.31"/>
  </g>
  <g id="_레이어_11" data-name="레이어 11">
    <path class="cls-12" d="m122.62,265.38c-6.16-6.91-12.1-14.02-17.8-21.32-1.39-1.78-2.78-3.56-4.13-5.38-1.25-1.7-2.45-3.49-3.03-5.54-1.19-4.22,1.42-7.53,4.6-9.96,1.46-1.12,3.12-2.33,4.94-2.76,2.13-.51,3.66.9,4.41,2.79,1.61,4.05,1.62,8.75,2.04,13.03.67,6.93,2.49,15.22,9.37,18.62,4.99,2.47,13.05.39,15.06-5.19,1.2-3.35-.76-6.73-3.01-9.11-2.59-2.72-5.84-4.75-9.19-6.4s-7.01-3.02-10.53-4.51-7.46-2.91-9.77-5.88c-2.7-3.48-.9-7.97,1.4-11.12,2.09-2.88,4.76-5.38,7.61-7.5,11.73-8.73,27.11-10.36,41.21-8.4,4.06.57,7.84.16,10.71-3.04,2.28-2.55,3.87-5.82,4.81-9.1,1.85-6.44,1.27-13.63-1.64-19.66-3.19-6.62-9.34-12.29-17.05-12.15-4.29.08-8.42,1.2-12.72.45-3.87-.68-7.59-2.4-10.4-5.18-2.59-2.57-4.24-6-4.68-9.62-.47-3.89.78-7.25,2.89-10.46,1.81-2.75,4.25-5.7,4.4-9.14.16-3.76-2.65-6.31-5.48-8.3-6.32-4.44-13.76-7.19-21.43-8.04-3.88-.43-7.8-.41-11.67.1-1.92.25-3.82.63-5.69,1.12-1.72.45-3.62.9-5.07,1.96-3.14,2.28-1.2,5.76-.42,8.72,1.01,3.8-1.34,6.31-4.61,7.85-3.49,1.65-7.4,2.71-11.15,3.57-4.03.92-8.24,1.44-12.37.99-1.98-.21-3.95-.65-5.82-1.36-1.46-.56-4.47-1.53-4.8-3.31-.35-1.91,2.13-2.99,3.57-3.45,1.62-.52,3.46-.82,5.11-.28,3.85,1.25,3.96,6.13,5.18,9.33s3.18,6.37,5.58,8.96c5.2,5.62,12.54,8.77,20.18,8.84,4.01.04,8.02-.72,11.73-2.24,3.33-1.36,6.31-3.4,9.14-5.59,5.16-3.99,10.18-9.35,16.65-11.12,7.36-2,13.99,2.7,20.2,5.94,3.41,1.78,6.96,3.22,10.81,3.62,4.57.48,9.14-.28,13.59-1.31,3.9-.9,8.12-1.71,11.61-3.75s4.99-5.06,6.27-8.57,2.55-6.9,5.52-9.42c2.74-2.34,6.26-3.66,9.85-3.91,8.41-.59,16.7,3.87,22.96,9.12,5.85,4.9,10.54,11.11,14.07,17.86,1.74,3.33,3.18,6.79,4.41,10.33,1.14,3.31,2.22,6.67,4.03,9.69s4.25,4.96,7.47,6.29c1.54.64,3.27,1.26,4.31,2.64,1.32,1.76,1,4.33.94,6.39-.11,4.29-.49,8.72-2.8,12.46-2.06,3.34-5.04,6.06-6.6,9.71-.76,1.76-1.18,3.73-.92,5.64s1.28,3.34,2.57,4.67c1.37,1.41,2.67,2.74,3.07,4.75s-.03,3.86-.69,5.65c-.72,1.94-1.77,3.74-2.9,5.46s-2.26,3.47-3.83,4.76c-1.29,1.06-2.83,1.49-4.39.71-1.46-.73-2.09-2.35-1.32-3.82.15-.3.36-.56.6-.79.03-.03.14-.14.2-.16-.38.11-.06.04.08.14.78.6,1.19,1.24,1.41,2.22.38,1.73.1,3.61-.44,5.27-1.16,3.6-3.84,6.53-6.61,9-5.34,4.78-12.13,8.52-15.14,15.36-.71,1.61-1.1,3.33-1.12,5.1-.03,2.27.63,4.54.25,6.8-.52,3.11-2.72,5.43-5.25,7.15-2.72,1.85-5.75,3.19-8.68,4.67-2.68,1.35-6.45,3.71-5.71,7.28.61,2.94,4.14,4.25,6.82,4,3.71-.34,6.57-2.84,8.98-5.48.48-.53-.41-.82-.78-.83-.71-.04-1.44.27-1.91.79-2.32,2.54-6.04,5.77-9.23,2.51-1.29-1.32-1.33-3.21-.24-4.67s2.84-2.26,4.44-3.04c5.32-2.63,12.66-5.6,14.31-11.97.52-2.02.19-4.07,0-6.11s.03-3.99.76-5.9c1.35-3.53,4.13-6.36,6.94-8.79,5.51-4.76,12.71-8.88,15.09-16.24.84-2.6,1.41-7.73-2.08-8.7-2.75-.77-6.07,1.61-5.91,4.54.19,3.46,4.69,4.08,7.32,3.46,3.85-.91,6.23-4.25,8.28-7.38s4.06-6.81,3.83-10.66c-.12-1.89-.95-3.55-2.21-4.94-1.36-1.51-2.93-2.76-3.44-4.82-1.05-4.24,1.79-8.14,4.25-11.28,2.68-3.42,4.78-6.74,5.47-11.11.34-2.13.42-4.29.46-6.44.04-1.93.25-4.08-.74-5.82-1.77-3.14-5.96-3.37-8.63-5.43-2.82-2.17-4.43-5.46-5.69-8.7-1.36-3.5-2.43-7.1-3.93-10.55-6.11-14.06-17.46-27.69-32.89-31.58-7.5-1.89-16.12-.67-21.93,4.74-2.8,2.61-4.15,5.88-5.42,9.41-.65,1.8-1.33,3.62-2.46,5.18-1.22,1.68-2.92,2.74-4.83,3.48s-4.06,1.22-6.1,1.72c-2.36.58-4.73,1.13-7.14,1.45-4.5.61-8.85.25-13.05-1.51-6.86-2.87-12.97-8.08-20.69-8.39-15.41-.62-23.13,16.84-37.62,19.11-8.08,1.27-16.28-1.48-22.06-7.23-2.63-2.63-4.73-5.77-6.08-9.24-1.26-3.24-1.36-7.55-4.62-9.55-3.04-1.87-7.14-1.08-10.27.1-2.72,1.02-7.18,4.39-3.43,7.12,3.06,2.24,7.19,3.24,10.9,3.6,4.11.41,8.26-.02,12.3-.83s8.1-2,11.97-3.5c2.93-1.14,6.29-2.85,7.72-5.82.71-1.49.68-3.08.26-4.66-.44-1.66-1.35-3.34-1.37-5.09-.03-2.26,1.96-2.74,3.77-3.24,1.93-.54,3.9-.92,5.88-1.17,7.96-.98,16.18.32,23.49,3.62,3.55,1.6,7.33,3.65,10.05,6.49,1.34,1.4,2.25,3.16,2.16,5.15-.09,1.78-.9,3.44-1.81,4.94-1.86,3.07-4.3,5.88-5.17,9.44s-.35,7.32,1.18,10.57c3.33,7.06,11.01,10.67,18.56,10.85,4.44.1,9.07-1.6,13.43-.28,3.75,1.13,6.88,4,9.15,7.11,4.15,5.68,5.69,13.17,4.52,20.08-.59,3.49-1.87,6.85-3.87,9.78-1.17,1.71-2.58,3.44-4.81,3.55-2.08.1-4.21-.45-6.27-.67-7.31-.79-14.73-.47-21.92,1.1s-13.83,4.36-19.65,8.63c-2.9,2.13-5.56,4.64-7.78,7.47s-4.43,7.03-3.08,10.81c1.27,3.57,5.07,5.42,8.27,6.92,3.52,1.65,7.19,2.99,10.75,4.55s7.14,3.38,10.11,5.98c2.67,2.34,5.67,5.88,4.4,9.69-.89,2.68-3.75,4.33-6.49,4.37-3.46.05-6.38-2.48-8.23-5.2-4.93-7.27-3.4-16.55-5.41-24.7-.44-1.77-1.07-3.66-2.64-4.76-1.43-1-3.23-1.1-4.9-.79-3.67.69-7.22,3.18-9.81,5.79-2.73,2.76-4.14,6.28-2.74,10.08s4.68,7.39,7.25,10.68c5.65,7.23,11.55,14.28,17.65,21.14.66.74,3.43-.3,2.69-1.13h0Z"/>
  </g>
</svg>