<?xml version="1.0" encoding="UTF-8"?>
<svg id="_레이어_2" data-name="레이어 2" xmlns="http://www.w3.org/2000/svg" xmlns:xlink="http://www.w3.org/1999/xlink" viewBox="0 0 282.04 310.49">
  <defs>
    <style>
      .cls-1 {
        fill: #fff;
      }

      .cls-2 {
        fill: url(#_무제_그라디언트_113);
      }

      .cls-3 {
        fill: none;
        stroke: #fff;
        stroke-miterlimit: 10;
      }

      .cls-4 {
        fill: #e0e0e0;
      }

      .cls-5 {
        fill: #47a747;
      }

      .cls-6 {
        fill: #67b25f;
      }

      .cls-7 {
        fill: #addef4;
      }

      .cls-8 {
        fill: #9fa0a0;
      }

      .cls-9 {
        fill: #98d6f1;
      }
    </style>
    <linearGradient id="_무제_그라디언트_113" data-name="무제 그라디언트 113" x1="0" y1="178.46" x2="282.04" y2="178.46" gradientUnits="userSpaceOnUse">
      <stop offset="0" stop-color="#fff"/>
      <stop offset="1" stop-color="#dcdddd" stop-opacity="0"/>
    </linearGradient>
  </defs>
  <g id="_레이어_1-2" data-name="레이어 1">
    <path class="cls-2" d="m282.01,179.2c1.44,71.5-57.77,126.08-94.03,129.67-7.95.79-29.31,1.5-43.59,1.6-17.61.12-38.25-.36-45.46-1.1C59.84,305.39-1.08,251.53.01,179.2.99,114.82,50.59,68.98,97.61,53.28c40.67-13.58,75.69-3.35,85.34-.2,47.6,15.55,97.76,61.52,99.06,126.13Z"/>
  </g>
  <g id="_레이어_2-2" data-name="레이어 2">
    <path class="cls-1" d="m144.71,52c74.55,0,129.17,65.63,129.36,129.36.17,54.51-39.48,106.92-77.58,115.83-11.06,2.59-32.21,3.89-46.34,4.17-17.24.34-35.42-.64-43.91-2.04-38.74-6.37-89.91-56.52-90.89-117.96-.49-30.65,13.47-56.75,13.48-56.75s.16-.31.31-.6c8.36-16.09,51.56-72.01,115.58-72.01Z"/>
    <path class="cls-9" d="m56.74,89.89c-.12,4.15,46.62,11.11,87.13,10.69,41.59-.44,88.75-8.79,88.57-12.98-.35-8.03-175.48-5.73-175.71,2.29Z"/>
    <path class="cls-7" d="m180.56,97.98c11-1.05,20.6-1.81,28.85-3.32,1.65-.3,4.22-.84,9.37-1.93,5.3-1.12,5.74-1.26,6.48-1.6,3.68-1.71,5.03-4.04,7.19-3.53.78.19,1.16.62,2.41,1.93,4.3,4.48,2.02,1.55,5.58,5.52,3.83,4.27,7.29,8.57,8.04,9.57,25.6,34.11,25.17,77.67,25.17,77.67-.51,51.91-36.01,106.11-77.58,115.83-11.06,2.59-32.21,3.89-46.34,4.17-17.24.34-35.42-.64-43.91-2.04-38.74-6.37-89.91-56.52-90.89-117.96-.49-30.65,13.47-56.75,13.48-56.75.05-.1.29-.56.31-.6,3-5.64,6.45-10.55,6.45-10.55,1.03-1.46,1.02-1.37,6.17-7.94,0,0,5.4-6.89,14.13-15.61,0,0,1.11-1.11,1.28-.94.01.01,0,.04.04.17.01.04.03.12.06.18.01.03.05.1.18.24.12.13.22.21.24.22.3.23.63.41.74.47.24.13.46.25.68.33.04.02.17.06.35.14.08.04.1.05.17.08.14.06.23.1.39.15.28.1.2.08.46.17.09.03.3.11.6.21.23.08.5.17.81.26.44.13.44.11.96.26.49.14.5.16,1.01.3.28.08.48.13.84.22.4.1.71.17.96.23.08.02.43.1.88.2.16.04.29.07.38.09.08.02.26.06.49.11.05.01.36.08.72.16.67.14,1.29.27,1.43.3,1.23.25,2.7.52,2.92.56,14.19,2.59,33.99,4.21,33.99,4.21,6.28.51,10.95.78,12.73.87,3.56.19,9.76.52,17.62.6,4.7.05,13.39.11,24.33-.62,6.76-.45,4.41-.54,19.85-2.02Z"/>
  </g>
  <g id="_레이어_3" data-name="레이어 3">
    <g>
      <path class="cls-8" d="m190.26,54.04c-12.06,2.56-27.39,4.74-45.19,4.74-17.8,0-33.14-2.18-45.19-4.74V6.93c0-1.7,1.38-3.07,3.07-3.07h84.23c1.7,0,3.07,1.38,3.07,3.07v47.12Z"/>
      <ellipse class="cls-4" cx="145.12" cy="5.02" rx="44.47" ry="5.02"/>
    </g>
  </g>
  <g id="_레이어_8" data-name="레이어 8">
    <g>
      <line class="cls-3" x1="204.54" y1="145" x2="214.68" y2="193.84"/>
      <line class="cls-3" x1="229.81" y1="232.67" x2="237.73" y2="186.5"/>
      <line class="cls-3" x1="210.66" y1="215.71" x2="233.46" y2="174.79"/>
      <line class="cls-3" x1="196.66" y1="265.73" x2="229.81" y2="232.63"/>
      <line class="cls-3" x1="206.76" y1="239.63" x2="214.68" y2="193.46"/>
      <line class="cls-3" x1="189.52" y1="283.02" x2="206.81" y2="239.48"/>
      <line class="cls-3" x1="209.71" y1="170.71" x2="219.04" y2="147.21"/>
      <line class="cls-3" x1="206.26" y1="239.99" x2="188.83" y2="221.67"/>
      <line class="cls-3" x1="192.05" y1="276.27" x2="174.62" y2="257.96"/>
      <line class="cls-3" x1="229.66" y1="232.78" x2="247.55" y2="214.92"/>
      <line class="cls-3" x1="212.44" y1="182.38" x2="191.94" y2="172.58"/>
      <ellipse class="cls-1" cx="205.08" cy="143.82" rx="3.44" ry="1.72" transform="translate(-45.39 141.18) rotate(-34.44)"/>
      <ellipse class="cls-1" cx="190.96" cy="172.11" rx="3.44" ry="1.72" transform="translate(-46.64 73.96) rotate(-19.58)"/>
      <ellipse class="cls-1" cx="219.21" cy="147.42" rx="3.44" ry="1.72" transform="translate(-36.73 82) rotate(-19.58)"/>
      <ellipse class="cls-1" cx="232.4" cy="174.21" rx="1.72" ry="3.44" transform="translate(9.58 360.51) rotate(-76.75)"/>
      <ellipse class="cls-1" cx="190.36" cy="220.93" rx="3.44" ry="1.72" transform="translate(-63.04 76.58) rotate(-19.58)"/>
      <ellipse class="cls-1" cx="237.7" cy="186.69" rx="3.44" ry="1.72" transform="translate(-48.82 90.47) rotate(-19.58)"/>
      <ellipse class="cls-1" cx="247.16" cy="215.31" rx="3.44" ry="1.72" transform="translate(-57.87 95.3) rotate(-19.58)"/>
      <ellipse class="cls-1" cx="179.25" cy="261.57" rx="3.44" ry="1.72" transform="translate(-77.3 75.21) rotate(-19.58)"/>
    </g>
  </g>
  <g id="_레이어_4_사본" data-name="레이어 4 사본">
    <g>
      <path class="cls-5" d="m64.48,262.42c-22.14-14.23-30.32-35.37-34.63-46.14-2.43-6.06-5.82-14.74-6.63-26.66-.5-7.32-1.2-16.4,2.95-26.89,2.18-5.49,5.48-13.52,11.37-16.83,16.12-9.07,46.13,20.7,89.08,44.91,18.26,10.3,44.75,22.92,80.24,32.52-42.32,38.7-89.47,58.18-120.33,49.15-11.97-3.5-22.05-10.05-22.05-10.05Z"/>
      <path class="cls-6" d="m43.78,242.88c-1.28-2.08-5.34-8.71-8.06-14.2-.56-1.12-1.1-2.26-1.1-2.26,0,0-1.9-4.01-3.52-8.04-6.82-16.95-7.88-28.77-7.88-28.77-1.51-16.72,3.81-30,5.74-34.36,6.47-14.67,16.26-23.33,21.01-27.47,5.9-5.14,26.51-23.12,57.19-22.82,15.23.15,27.56,4.75,35.8,8.93-17.15,20.92-28.73,38.96-36.08,51.45-14.22,24.15-19.25,35.8-29.39,44.88-.46.42-5.01,4.47-11.26,9.71-4.22,3.54-7.78,6.42-10.28,8.41-4.74,3.75-6.48,5.79-7.15,6.98-.1.18-.71,1.23-1.56,2.66-.32.54-.74,1.2-1.32,2.04-.85,1.23-1.6,2.2-2.12,2.85Z"/>
    </g>
  </g>
  <g id="_레이어_7" data-name="레이어 7">
    <g>
      <line class="cls-3" x1="67.21" y1="139.64" x2="48.5" y2="170.83"/>
      <line class="cls-3" x1="55.87" y1="205.65" x2="48.59" y2="170.43"/>
      <line class="cls-3" x1="68.89" y1="238.16" x2="55.83" y2="205.54"/>
      <line class="cls-3" x1="91.36" y1="261.55" x2="68.78" y2="237.94"/>
      <line class="cls-3" x1="172.82" y1="292.19" x2="125.13" y2="291.91"/>
      <line class="cls-3" x1="83.7" y1="241.97" x2="76.42" y2="206.75"/>
      <line class="cls-3" x1="96.72" y1="274.48" x2="83.66" y2="241.86"/>
      <line class="cls-3" x1="125.59" y1="291.67" x2="96.61" y2="274.26"/>
      <line class="cls-3" x1="59.28" y1="152.61" x2="52.23" y2="135"/>
      <line class="cls-3" x1="84.03" y1="242.21" x2="94.15" y2="227.01"/>
      <line class="cls-3" x1="112.18" y1="283.97" x2="122.31" y2="268.77"/>
      <line class="cls-3" x1="68.45" y1="237.6" x2="56.27" y2="224.86"/>
      <line class="cls-3" x1="48.78" y1="171.52" x2="49.2" y2="153.91"/>
      <ellipse class="cls-1" cx="95.01" cy="227.41" rx="2.18" ry="1.34"/>
      <ellipse class="cls-1" cx="87.51" cy="239.1" rx="2.18" ry="1.34"/>
      <ellipse class="cls-1" cx="77.07" cy="216.84" rx="2.18" ry="1.34"/>
      <ellipse class="cls-1" cx="77.76" cy="207.42" rx="2.18" ry="1.34"/>
      <ellipse class="cls-1" cx="49.2" cy="154.03" rx="2.33" ry="1.25" transform="translate(-86.54 66.17) rotate(-39.37)"/>
      <ellipse class="cls-1" cx="67.87" cy="139.3" rx="2.33" ry="1.25" transform="translate(-72.96 74.67) rotate(-39.37)"/>
      <ellipse class="cls-1" cx="56.27" cy="224.87" rx="1.33" ry="2.19" transform="translate(-173.97 251.66) rotate(-82.59)"/>
      <ellipse class="cls-1" cx="121.68" cy="269.01" rx="2.33" ry="1.25" transform="translate(-143.03 138.24) rotate(-39.37)"/>
    </g>
    <ellipse class="cls-1" cx="52.23" cy="133.69" rx="2.61" ry="1.31"/>
  </g>
</svg>