<?xml version="1.0" encoding="UTF-8"?>
<svg id="_레이어_2" data-name="레이어 2" xmlns="http://www.w3.org/2000/svg" viewBox="0 0 147.25 157.31">
  <defs>
    <style>
      .flowerlight {
        fill: #f0b3d0;
      }

      .flowermain {
        fill: #df79ad;
      }

      .stem {
        fill: #68ba60;
      }

      .flowerstrong {
        fill: #e297bf;
      }

      .flowerblack {
        fill: #c3669b;
      }
    </style>
  </defs>
  <g id="_레이어_4_사본" data-name="레이어 4 사본">
    <g>
      <path class="stem" d="m111.83,141.67c-.39.37-.78.72-1.19,1.07-.3.25-.61.49-.9.74-.48.4,1.09-.81.34-.26-.28.21-.56.42-.85.62-.85.59-1.72,1.15-2.63,1.65-.52.28-1.05.53-1.57.8-1.03.52,1.07-.38-.02.02-.32.11-.63.24-.95.35-.59.2-1.2.37-1.81.51-.28.06-.57.11-.85.17-1.17.25,1.14-.04-.06,0-.6.02-1.18.06-1.78.04-.3-.01-1.47.08-.12.04-.41.01-.89-.16-1.28-.26-.31-.08-.62-.17-.92-.27-.23-.08-1.33-.62-.28-.08-.4-.21-.81-.4-1.2-.63-.44-.26-.89-.7-1.36-.89.06.03.97.8.37.28-.28-.24-.56-.47-.83-.72-.75-.69-1.33-1.62-2.09-2.27.06.05.73.99.26.32-.17-.24-.34-.47-.51-.71-.33-.49-.65-.99-.95-1.5-.57-.96-1.09-1.96-1.56-2.98-.1-.2-.22-.71-.38-.86.39.36.35.87.14.32-.27-.69-.54-1.39-.79-2.09-.79-2.25-1.42-4.56-1.93-6.89-.25-1.16-.48-2.33-.67-3.5-.09-.53-.17-1.05-.25-1.58-.06-.38-.01-1.36,0,.08,0-.31-.08-.62-.11-.93-.64-5.53-.69-11.11-.01-16.65.32-2.61-2.53-5.11-5-5-2.98.13-4.66,2.21-5,5-.66,5.33-.63,10.7-.06,16.03s1.55,10.91,3.38,16.1c1.8,5.1,4.3,10.21,8.26,13.99,4.9,4.68,11.43,6.55,18.07,5.11,5.33-1.15,10.24-4.4,14.17-8.1,1.91-1.8,1.95-5.28,0-7.07s-5.04-1.92-7.07,0h0Z"/>
      <g>
        <path class="flowermain" d="m44.7,47.23c1.89,16.92-4.7,21.08.35,28.06,3.8,5.25,8.05,3.6,17.68,12.36,5.73,5.21,6,7.41,9.23,8.08,7.09,1.46,15.92-7.11,20.02-15.47,3.75-7.66,2.85-15.62.9-31.24-2.46-19.7-3.84-29.72-11.16-37.9C79.62,8.77,72.26.53,61.06.03c-2.77-.12-12.2-.06-17.42,6.57-1.97,2.5-2.9,5.38-3.42,9.76-1.54,13,3.05,18.1,4.48,30.87Z"/>
        <path class="flowerstrong" d="m52.26,57.04c2.43,7.93,3.7,11.99,6.56,16.87,5.95,10.18,11.81,13.01,13.34,13.7,2.32,1.05,6.3,2.84,11.25,2.01,6.44-1.08,10.3-5.9,11.83-7.81,1.74-2.17,5.9-8.11,4.94-24.37-.83-14.03-1.51-24.07-10.2-32.54-2.03-1.98-9.17-8.94-20.3-9.1-2.76-.04-12.14.24-17.5,6.11-2.02,2.22-3.02,4.73-3.64,8.53-.73,4.45-1.18,10.64,3.72,26.62Z"/>
        <path class="flowerlight" d="m49.35,64.81c2.44,9.27,3.72,14.02,6.28,19.82,5.36,12.09,10.15,15.74,11.4,16.63,1.89,1.36,5.14,3.69,8.98,3.06,4.99-.81,7.7-6.09,8.77-8.18,1.22-2.37,4.09-8.92,2.24-27.67-1.59-16.18-2.8-27.76-10.2-38.07-1.73-2.41-7.8-10.88-16.56-11.82-2.17-.23-9.52-.54-13.34,5.84-1.44,2.41-2.06,5.23-2.29,9.56-.27,5.06-.21,12.14,4.71,30.83Z"/>
        <path class="flowerstrong" d="m87.01,57.48c.47,8.28.68,12.53-.3,18.09-2.05,11.61-6.57,16.29-7.77,17.47-1.81,1.79-4.92,4.85-9.86,5.78-6.42,1.22-11.71-1.96-13.81-3.23-2.38-1.43-8.35-5.56-13.08-21.15-4.09-13.45-6.93-23.1-1.72-34.06,1.22-2.56,5.5-11.56,15.89-15.58,5.44-2.1,7.34-2.5,8.51-2.01,2.1.89,2.53,2.85,4.76,3.16,2.4.34,3.01-1.77,5.26-1.5,2.62.32,4.53,3.49,6.37,6.74,2.22,3.92,4.79,9.57,5.74,26.26Z"/>
        <path class="flowermain" d="m80.35,50.12c-2.29,11.75-5.07,12.46-7.54,27.03-1.21,7.15.17,13.71.87,19.9.73,6.4,1.26,7.25,1.65,7.75,5.6,7.17,29.22,4.04,41.13-9.71,5.31-6.14,6.93-13.97,9.63-29.73,2.28-13.3,3.56-21.35.46-31.4-1.27-4.14-4.12-11.29-10.46-17.77-4.27-4.37-10.08-10.31-17.17-9.52-7.93.88-12.61,9.61-14.2,12.57-5.43,10.12-1.17,14.54-4.36,30.89Z"/>
        <path class="flowermain" d="m64.39,46.11c.65.59,1.2,1.14,1.71,1.79,7.78,9.85,5.63,19.28,12.57,34.73.25.57,2.77,6.15,5.27,13.81,1.66,5.09,1.83,6.57,1.29,7.98-2.27,5.85-15.3,5.75-16.36,5.73-17.34-.3-36.32-17.27-43.39-37.63-9.48-27.26,3.25-56.77,9.17-56.7,3.58.05,3.07,10.88,14.16,20.83,7.06,6.34,9.43,3.89,15.58,9.46Z"/>
        <path class="flowermain" d="m13.66,123.67c.27.04.51.09.77.17,3.78,1.23,4.9,4.08,9.46,6.92.17.1,1.82,1.13,3.83,2.71,1.34,1.05,1.65,1.4,1.75,1.87.45,1.93-2.98,4.18-3.26,4.36-4.59,2.95-12.56,1.8-18.03-2.31-7.32-5.5-9.24-15.46-7.68-16.48.94-.61,2.74,2.32,7.4,3,2.97.43,3.16-.62,5.75-.23Z"/>
        <path class="flowermain" d="m47.82,141.34c-.19-.06-.36-.11-.55-.14-2.82-.43-4.47,1.01-8.31,1.36-.14.01-1.53.14-3.34.49-1.2.23-1.51.36-1.73.62-.92,1.07.54,3.57.66,3.78,1.97,3.31,7.45,5.12,12.29,4.26,6.48-1.14,10.97-6.81,10.3-7.94-.4-.68-2.51.59-5.71-.46-2.04-.67-1.82-1.39-3.6-1.97Z"/>
        <path class="flowermain" d="m137.86,137.69c-.19-.06-.36-.11-.55-.14-2.82-.43-4.47,1.01-8.31,1.36-.14.01-1.53.14-3.34.49-1.2.23-1.51.36-1.73.62-.92,1.07.54,3.57.66,3.78,1.97,3.31,7.45,5.12,12.29,4.26,6.48-1.14,10.97-6.81,10.3-7.94-.4-.68-2.51.59-5.71-.46-2.04-.67-1.82-1.39-3.6-1.97Z"/>
        <path class="flowerblack" d="m67.93,34.56c.23.16.57.43,1.24.97,1.19.96.88.74,1.09.89.56.42.87.58.84.75-.03.13-.22.14-.66.36-.44.21-.41.28-.81.49-.24.12-.66.33-1.24.42-.17.02-.52.06-.95,0-.17-.02-.6-.09-1.08-.33-.39-.19-.63-.39-.93-.64-.63-.53-.62-.71-1.26-1.22-.03-.03-.23-.17-.63-.47-.29-.21-.39-.28-.55-.36-.23-.11-.28-.09-.31-.14-.11-.24.8-.6,1.28-1.46.07-.13.17-.33.37-.57.16-.2.41-.45.41-.45h0s.53.21.78.32c.4.18.51.28,1.33.78.84.52.75.42,1.09.66Z"/>
        <path class="flowermain" d="m114.79,135.02c.27.04.51.09.77.17,3.78,1.23,4.9,4.08,9.46,6.92.17.1,1.82,1.13,3.83,2.71,1.34,1.05,1.65,1.4,1.75,1.87.45,1.93-2.98,4.18-3.26,4.36-4.59,2.95-12.56,1.8-18.03-2.31-7.32-5.5-9.24-15.46-7.68-16.48.94-.61,2.74,2.32,7.4,3,2.97.43,3.16-.62,5.75-.23Z"/>
        <path class="flowermain" d="m55.67,145.59c.16.23.31.42.49.61,2.77,2.84,5.81,2.62,10.37,5.46.17.1,1.82,1.14,4.11,2.25,1.53.74,1.98.87,2.45.76,1.92-.43,2.41-4.44,2.44-4.77.6-5.35-3.96-11.96-10.05-15.07-8.16-4.16-17.9-1.6-18.11.22-.13,1.1,3.28,1.44,5.96,5.31,1.7,2.46.84,3.08,2.34,5.23Z"/>
      </g>
    </g>
  </g>
</svg>