<svg width="20" height="20" viewBox="0 0 20 20" fill="none" xmlns="http://www.w3.org/2000/svg">
<path d="M13 8.25C14.7949 8.25 16.25 6.79493 16.25 5C16.25 3.20507 14.7949 1.75 13 1.75M13.25 11.75H13.375C16.0674 11.75 18.25 13.9326 18.25 16.625C18.25 17.5225 17.5225 18.25 16.625 18.25H15M10.25 5C10.25 6.79493 8.79493 8.25 7 8.25C5.20507 8.25 3.75 6.79493 3.75 5C3.75 3.20507 5.20507 1.75 7 1.75C8.79493 1.75 10.25 3.20507 10.25 5ZM3.375 18.25H10.625C11.5225 18.25 12.25 17.5225 12.25 16.625C12.25 13.9326 10.0674 11.75 7.375 11.75H6.625C3.93261 11.75 1.75 13.9326 1.75 16.625C1.75 17.5225 2.47754 18.25 3.375 18.25Z" stroke="#898989" stroke-width="1.5" stroke-linecap="round" stroke-linejoin="round"/>
</svg>
