<?xml version="1.0" encoding="UTF-8"?>
<svg id="_레이어_2" data-name="레이어 2" xmlns="http://www.w3.org/2000/svg" viewBox="0 0 74.56 74">
  <defs>
    <style>
      .cls-1 {
        fill: #e7366a;
      }

      .cls-2 {
        fill: #efec69;
      }
    </style>
  </defs>
  <g id="_레이어_2-2" data-name="레이어 2">
    <path class="cls-1" d="m33.66,47.15c-5.14,6.35-17.25,3.71-17.87,3.57-2.26-.52-11.63-2.67-14.81-11.49-2.25-6.24-.41-13.05,3.57-17.62,3.75-4.3,9.84-7.11,15.45-6.13,12.64,2.22,20.45,23.28,13.66,31.66Z"/>
    <path class="cls-1" d="m40.9,45.05c5.14,6.35,17.25,3.71,17.87,3.57,2.26-.52,11.63-2.67,14.81-11.49,2.25-6.24.41-13.05-3.57-17.62-3.75-4.3-9.84-7.11-15.45-6.13-12.64,2.22-20.45,23.28-13.66,31.66Z"/>
    <path class="cls-1" d="m37.7,38.72c-8.15.45-14.33-10.31-14.63-10.86-1.13-2.02-5.81-10.42-1.41-18.69C24.77,3.31,31.06.11,37.12,0c5.71-.1,11.87,2.53,14.9,7.35,6.83,10.86-3.55,30.78-14.32,31.36Z"/>
    <path class="cls-1" d="m37.03,39.99c6.48,4.96,4.18,17.15,4.05,17.77-.46,2.27-2.36,11.69-11.08,15.12-6.18,2.42-13.04.76-17.71-3.1-4.4-3.64-7.38-9.64-6.54-15.28,1.87-12.69,22.71-21.07,31.28-14.51Z"/>
    <path class="cls-1" d="m38.67,39.99c-6.48,4.96-4.18,17.15-4.05,17.77.46,2.27,2.36,11.69,11.08,15.12,6.18,2.42,13.04.76,17.71-3.1,4.4-3.64,7.38-9.64,6.54-15.28-1.87-12.69-22.71-21.07-31.28-14.51Z"/>
    <circle class="cls-2" cx="37.49" cy="38.73" r="5.39"/>
  </g>
</svg>