<?xml version="1.0" encoding="UTF-8"?>
<svg id="_레이어_2" data-name="레이어 2" xmlns="http://www.w3.org/2000/svg" viewBox="0 0 30.69 24.78">
  <defs>
    <style>
      .cls-1 {
        fill: #cd62a1;
      }
    </style>
  </defs>
  <g id="_레이어_8" data-name="레이어 8">
    <ellipse class="cls-1" cx="15.35" cy="12.2" rx="11.66" ry="12.18"/>
    <path class="cls-1" d="m21.16,11.47c1.89,5.98-1.08,11-2.5,13.06-1.77.25-5.96.66-10.12-.81C.82,20.97.17,14.22.05,13-.49,7.43,3.41.35,8.74.01c5.43-.35,10.82,6.39,12.42,11.45Z"/>
    <path class="cls-1" d="m9.54,11.47c-1.89,5.98,1.08,11,2.5,13.06,1.77.25,5.96.66,10.12-.81,7.72-2.74,8.37-9.49,8.48-10.71C31.18,7.43,27.28.35,21.95.01c-5.43-.35-10.82,6.39-12.42,11.45Z"/>
  </g>
</svg>