<?xml version="1.0" encoding="UTF-8"?>
<svg id="_레이어_2" data-name="레이어 2" xmlns="http://www.w3.org/2000/svg" viewBox="0 0 220.93 199.49">
  <defs>
    <style>
      .cls-1 {
        fill: #eee5dc;
      }

      .cls-2 {
        fill: #8c847d;
      }
    </style>
  </defs>
  <g id="_레이어_1-2" data-name="레이어 1">
    <g>
      <path class="cls-1" d="m172.71,189.13l35.4-141.73H19.54v2.53l34.96,139.96c.02.14.05.28.11.42l.18.73h.26c4.01,4.77,28.71,8.44,58.58,8.44s54.57-3.67,58.58-8.44h0v-.02c.37-.44.58-.89.58-1.35,0-.18-.04-.37-.1-.55Z"/>
      <polygon class="cls-2" points="15.42 44.28 15.97 50.26 204.96 50.26 205.51 44.28 15.42 44.28"/>
      <polygon class="cls-1" points="4.39 44.2 216.39 44.2 220.93 0 0 0 0 1.38 4.39 44.2"/>
    </g>
  </g>
</svg>